<svg xmlns="http://www.w3.org/2000/svg" version="1.1" xmlns:xlink="http://www.w3.org/1999/xlink" xmlns:svgjs="http://svgjs.dev/svgjs" width="1500" height="1500" viewBox="0 0 1500 1500"><rect width="1500" height="1500" fill="#ffffff"></rect><g transform="matrix(0.6666666666666666,0,0,0.6666666666666666,249.39452624950712,593.9763611870609)"><svg viewBox="0 0 396 124" data-background-color="#efe9dd" preserveAspectRatio="xMidYMid meet" height="469" width="1500" xmlns="http://www.w3.org/2000/svg" xmlns:xlink="http://www.w3.org/1999/xlink"><g id="tight-bounds" transform="matrix(1,0,0,1,0.23997020579423634,-0.12282128100923728)"><svg viewBox="0 0 395.52 124.24564256201845" height="124.24564256201845" width="395.52"><g><svg viewBox="0 0 395.52 124.24564256201845" height="124.24564256201845" width="395.52"><g transform="matrix(1,0,0,1,0,63.97244560496172)"><svg viewBox="0 0 395.52 60.27319695705672" height="60.27319695705672" width="395.52"><g id="textblocktransform"><svg viewBox="0 0 395.52 60.27319695705672" height="60.27319695705672" width="395.52" id="textblock"><g><svg viewBox="0 0 395.52 60.27319695705672" height="60.27319695705672" width="395.52"><g transform="matrix(1,0,0,1,0,0)"><svg width="395.52" viewBox="-0.5608300000000037 -21.992279999999997 331.87660999999997 50.57461" height="60.27319695705672" data-palette-color="#dc2626"><path d="M25.792-18.058l4.863 0.344-0.915 2.328-1.177 6.433-1.842 0.083-0.136-6.764-12.145-2.533-2.818 13.252 8.258 1.193 1.813-4.556 1.841 1.084-1.476 5.528-0.551 6.046-1.901-0.739-0.082-5.04-8.35-0.955-2.026 14.407 4.416 1.738-0.548 1.68-6.99-1.478-6.587-0.646 0.401-1.706 4.155-0.541 3.139-15.024 2.033-14.507-3.783-1.881 0.549-1.68 6.128 1.53zM48.809 0.727l-1.475 10.588-0.658 7.028 3.343 0.987-0.581 1.583-6.965-0.397-0.223-3.012-0.247-0.036-5.32 2.214-5.137-0.739-3.101-3.023-0.341-5 2.734-3.547 6.308-1.708 6.558 0.692 0.693-6.214-0.498-3.204-3.845-1.716-4.954 0.448-0.904 5.225-1.988 0.118-0.31-6.965 5.934-0.863 6.417 0.621 3.589 2.436zM32.919 11.512l0.759 4.202 3.566 1.473 5.412-2.151 0.763-6.699-4.306-0.62-4.02 0.977zM56.461 14.091l-0.254 5.558 4.045 1.133 4.684-0.101 1.492-3.248-1.036-2.74-8.564-6.691-1.616-3.363 0.523-5.275 3.877-2.563 5.315-0.328 7.124 2.352-1.906 7.176-2.003-0.942-0.333-5.275-3.35-1.051-3.814 0.405-1.266 2.62 0.845 3.07 8.879 6.588 1.988 3.195-0.353 4.691-3.846 3.574-6.066 0.29-4.098-0.686-4.406-2.333 2.086-7.004zM85.351-12.758l-0.84 6.742-0.864 8.156 5.815-2.905 5.111 0.095 4.309 3.539 0.399 4.05-1.017 10.491-0.111 5.863 3.454 1.255-0.402 1.722-5.856-0.763-6.098-0.282 0.252-1.735 3.374-0.708 0.806-5.2 0.749-10.866-1.058-3.405-4.168-1.117-5.817 2.352-0.683 6.666-0.322 4.83-0.355 5.792 3.539 1.313-0.402 1.721-5.846-0.762-6.098-0.282 0.252-1.734 3.374-0.709 0.906-5.191 1.706-21.824 0.103-5.201-3.55-0.16-0.096-1.765 6.991-0.744zM114.419 1.849l-0.773 6.765-0.612 4.971-0.152 4.84-0.162 5.801 3.57 1.226-0.358 1.731-5.863-0.617-6.104-0.132 0.209-1.74 3.356-0.792 0.577-5.224 0.499-9.578 0.075-5.205-3.553-0.072-0.14-1.762 6.971-0.917zM107.972-8.013l1.263-1.774 2.312-0.908 2.248 0.892 0.886 2.661-1.478 2.001-2.302 0.758-2.015-1.418zM121.121 22.597l-1.455-5.011 0.256-6.535 3.18-5.83 5.792-3.526 6.845 0.018 6.099 3.991 3.012 6.123-0.957 9.109-3.928 5.751-7.83 1.895-6.436-1.503zM128.845 4.245l-3.361 5.323-0.469 5.586 0.373 5.809 2.002 3.831 5.235 1.506 4.98-1.957 1.754-7.727-0.245-6.515-1.687-4.219-3.575-1.991zM172.43 19.887l0.375 5.851 3.546 0.966-0.257 1.749-5.899-0.276-6.101 0.224 0.107-1.75 3.305-0.985 0.372-5.249-0.153-10.891-1.336-3.305-4.247-0.769-5.452 2.777-0.107 1.749-0.322 4.999 0.08 4.841 0.225 5.801 3.635 1.015-0.257 1.749-5.889-0.275-6.101 0.224 0.107-1.75 3.305-0.986 0.372-5.248-0.386-14.792-3.551 0.135-0.242-1.751 6.906-1.321 2.497 0.561-0.161 2.549 5.354-3.227 5.102-0.328 4.586 3.17 0.733 4.003zM205.263-9.819l1.585 0.943-0.851 5.375-1.64 0.31-0.812-4.362-0.422-0.585-1.908-0.18-3.012 2.163-0.474 4.761 0.203 5.496 7.126-0.514-0.407 2.517-6.645-0.004 0.534 13.079 0.468 5.887 5.223 0.807-0.185 1.758-7.594 0.031-6.087 0.475 0.036-1.752 3.31-1.124 0.312-5.115-0.714-13.873-3.238 0.37-0.093-2.498 3.305 0.078 0.025-7.456 2.373-4.831 4.413-2.165zM214.829 1.787l0.185 7.703 0.686 10.869 1.555 3.208 4.216 0.285 5.235-3.586-0.333-5.28-0.443-6.234-0.577-5.174-3.534 0.373-0.359-1.731 6.801-1.781 2.53 0.391 0.078 6.809 0.202 3.995 0.292 3.038 0.566 8.972 3.556 0.778-0.14 1.762-6.836 0.431-1.412-4.119-5.378 4.497-5.058 0.67-4.789-2.855-1-3.944-0.623-10.672-0.858-5.658-3.533 0.373-0.36-1.73 6.802-1.782zM240.995 17.458l0.899 5.491 4.192 0.273 4.562-1.067 0.789-3.486-1.58-2.467-9.761-4.777-2.277-2.957-0.578-5.269 3.264-3.309 5.133-1.419 7.456 0.83-0.382 7.414-2.155-0.507-1.416-5.093-3.494-0.336-3.648 1.185-0.698 2.824 1.462 2.83 10.047 4.611 2.606 2.716 0.624 4.662-3.024 4.291-5.876 1.537-4.151 0.176-4.793-1.372 0.594-7.284zM265.963-2.579l0.411 6.797 0.26 5.002 0.689 4.793 0.846 5.742 3.729 0.587-0.053 1.767-5.881 0.409-6.034 0.929-0.096-1.75 3.168-1.362-0.338-5.245-1.17-9.519-0.828-5.14-3.511 0.546-0.444-1.712 6.706-2.111zM257.903-11.173l0.937-1.967 2.119-1.294 2.369 0.488 1.333 2.467-1.108 2.228-2.135 1.145-2.231-1.047zM276.16 16.693l-2.302-4.682-0.881-6.481 2.122-6.293 5.093-4.477 6.744-1.169 6.698 2.873 4.029 5.508 0.637 9.137-2.871 6.345-7.383 3.224-6.6-0.364zM280.585-2.72l-2.387 5.825 0.507 5.582 1.375 5.657 2.635 3.426 5.417 0.575 4.566-2.79 0.387-7.915-1.371-6.373-2.393-3.863-3.866-1.341zM326.223 5.127l1.384 5.698 3.659 0.336 0.05 1.767-5.857 0.752-5.97 1.278-0.198-1.742 3.084-1.543-0.544-5.234-2.039-10.699-1.889-3.024-4.315-0.02-4.888 3.679 0.197 1.742 0.55 4.979 0.918 4.753 1.227 5.674 3.757 0.37 0.05 1.767-5.848 0.75-5.97 1.278-0.197-1.741 3.083-1.544-0.543-5.234-2.945-14.5-3.474 0.748-0.542-1.683 6.572-2.497 2.557 0.119 0.283 2.538 4.714-4.106 4.967-1.208 5.067 2.327 1.415 3.815z" opacity="1" transform="matrix(1,0,0,1,0,0)" fill="#000000" class="wordmark-text-0" data-fill-palette-color="primary" id="text-0"></path></svg></g></svg></g></svg></g></svg></g><g transform="matrix(1,0,0,1,167.62374748570585,0)"><svg viewBox="0 0 60.27250502858828 60.27319695705672" height="60.27319695705672" width="60.27250502858828"><g><svg xmlns="http://www.w3.org/2000/svg" xmlns:xlink="http://www.w3.org/1999/xlink" version="1.1" x="0" y="0" viewBox="6.446 6.446 87.108 87.10900000000001" enable-background="new 0 0 100 100" xml:space="preserve" height="60.27319695705672" width="60.27250502858828" class="icon-icon-0" data-fill-palette-color="accent" id="icon-0"><path d="M50 93.555c-5.879 0-11.583-1.152-16.953-3.424-5.187-2.193-9.845-5.334-13.844-9.334-3.999-3.998-7.14-8.656-9.333-13.842C7.598 61.584 6.446 55.881 6.446 50c0-5.879 1.152-11.583 3.423-16.953 2.193-5.187 5.334-9.845 9.333-13.844 4-3.999 8.657-7.14 13.844-9.333C38.417 7.598 44.121 6.446 50 6.446c5.88 0 11.583 1.152 16.953 3.423 5.188 2.193 9.845 5.334 13.844 9.333 4 4 7.141 8.657 9.334 13.844 2.271 5.37 3.423 11.074 3.423 16.953 0 5.881-1.151 11.584-3.423 16.955-2.193 5.186-5.334 9.844-9.334 13.842-3.999 4-8.656 7.141-13.844 9.334C61.583 92.402 55.88 93.555 50 93.555zM50 8.853c-5.556 0-10.944 1.088-16.016 3.233-4.899 2.073-9.3 5.04-13.08 8.819s-6.746 8.18-8.819 13.08C9.94 39.056 8.853 44.444 8.853 50c0 5.555 1.088 10.945 3.233 16.016 2.073 4.9 5.04 9.301 8.819 13.08s8.18 6.748 13.08 8.818c5.072 2.146 10.46 3.234 16.016 3.234s10.944-1.088 16.016-3.234c4.9-2.07 9.301-5.039 13.08-8.818s6.746-8.18 8.818-13.08c2.146-5.07 3.233-10.461 3.233-16.016 0-5.556-1.088-10.944-3.233-16.016-2.072-4.9-5.039-9.3-8.818-13.08s-8.18-6.746-13.08-8.819C60.944 9.94 55.556 8.853 50 8.853z" fill="#000000" data-fill-palette-color="accent"></path><path d="M50 61.311c-6.236 0-11.31-5.074-11.31-11.311 0-6.236 5.074-11.31 11.31-11.31 6.236 0 11.31 5.074 11.31 11.31C61.31 56.236 56.236 61.311 50 61.311zM50 41.097c-4.909 0-8.903 3.994-8.903 8.903 0 4.91 3.994 8.904 8.903 8.904S58.903 54.91 58.903 50C58.903 45.091 54.909 41.097 50 41.097z" fill="#000000" data-fill-palette-color="accent"></path><path d="M50 11.74c-21.13 0-38.26 17.13-38.26 38.26 0 21.131 17.13 38.26 38.26 38.26 21.13 0 38.26-17.129 38.26-38.26C88.26 28.87 71.13 11.74 50 11.74zM79.934 34.194c1.707 3.23 2.872 6.696 3.461 10.301l-8.938 1.461c-0.315-1.922-0.855-3.796-1.62-5.604-0.277-0.657-0.584-1.298-0.914-1.925L79.934 34.194zM72.378 50c0 2.441-0.389 4.824-1.136 7.076l-2.662-0.887c0.664-1.99 1.001-4.078 1.001-6.204v-0.047l2.797-0.004C72.378 49.956 72.378 49.978 72.378 50zM65.51 66.131l-1.944-2.025c1.527-1.467 2.8-3.156 3.78-5.023l2.486 1.307c-1.039 1.979-2.383 3.811-4.008 5.436C65.721 65.928 65.615 66.029 65.51 66.131zM27.622 50c0-0.604 0.025-1.203 0.072-1.797l2.787 0.219c-0.041 0.516-0.062 1.042-0.062 1.563 0 1.597 0.191 3.181 0.568 4.71l-2.721 0.672C27.841 53.631 27.622 51.832 27.622 50zM61.091 33.845l1.581-2.295c1.117 0.77 2.172 1.646 3.152 2.626 0.738 0.739 1.417 1.521 2.038 2.339l-2.226 1.682C64.36 36.508 62.831 35.044 61.091 33.845zM64.919 50c0 8.24-6.68 14.918-14.919 14.918S35.081 58.24 35.081 50c0-8.239 6.68-14.919 14.919-14.919S64.919 41.761 64.919 50zM58.361 32.272c-1.902-0.9-3.93-1.482-6.025-1.73l0.328-2.763c2.407 0.284 4.729 0.951 6.891 1.973L58.361 32.272zM49.175 30.421c-2.116 0.087-4.185 0.51-6.147 1.259l-0.993-2.605c2.225-0.846 4.59-1.333 7.025-1.433L49.175 30.421zM40.191 33.034c-1.826 1.059-3.462 2.4-4.865 3.986l-2.087-1.846c0.301-0.34 0.613-0.673 0.937-0.998 1.398-1.398 2.95-2.587 4.615-3.554L40.191 33.034zM33.431 39.543c-1.128 1.785-1.954 3.727-2.453 5.77l-2.715-0.664c0.571-2.339 1.516-4.563 2.807-6.599L33.431 39.543zM31.984 57.674c0.828 1.936 1.959 3.721 3.365 5.305l-2.099 1.863c-1.619-1.824-2.911-3.869-3.848-6.062L31.984 57.674zM37.628 65.164c1.64 1.338 3.469 2.396 5.437 3.141l-0.997 2.633c-2.239-0.848-4.335-2.057-6.217-3.596L37.628 65.164zM46.085 69.178c1.278 0.258 2.595 0.389 3.915 0.389 0.795 0 1.596-0.047 2.377-0.141l0.337 2.791c-0.894 0.107-1.8 0.162-2.714 0.162-1.52 0-3.017-0.15-4.473-0.445L46.085 69.178zM55.459 68.797c2.02-0.584 3.925-1.49 5.664-2.693l1.6 2.312c-1.988 1.379-4.172 2.418-6.481 3.084L55.459 68.797zM69.323 46.794c-0.34-2.078-1.011-4.077-1.995-5.939l2.471-1.306c1.122 2.119 1.893 4.409 2.283 6.795L69.323 46.794zM77.013 29.602l-7.23 5.462c-0.688-0.909-1.441-1.774-2.257-2.59-1.08-1.081-2.248-2.049-3.489-2.904l5.144-7.465C72.18 24.171 74.815 26.694 77.013 29.602zM64.459 19.385l-3.879 8.198c-0.307-0.146-0.617-0.286-0.933-0.419-2.15-0.909-4.395-1.502-6.7-1.774l1.066-9.006C57.645 16.813 61.159 17.823 64.459 19.385zM48.588 16.176l0.373 9.062c-2.68 0.11-5.289 0.645-7.781 1.595l-3.23-8.475C41.353 17.061 44.931 16.327 48.588 16.176zM33.034 20.703l4.551 7.841c-1.859 1.077-3.571 2.392-5.11 3.931-0.359 0.359-0.704 0.729-1.039 1.106l-6.79-6.005C27.063 24.842 29.885 22.53 33.034 20.703zM21.379 31.926l7.66 4.841c-0.719 1.137-1.347 2.333-1.875 3.584-0.514 1.214-0.925 2.458-1.236 3.727l-8.798-2.151C17.995 38.383 19.425 35.018 21.379 31.926zM16.162 49.985c0-0.893 0.036-1.794 0.105-2.681l9.027 0.71c-0.051 0.658-0.079 1.319-0.079 1.986 0 2.025 0.241 4.012 0.717 5.941l-8.788 2.168C16.493 55.463 16.162 52.73 16.162 49.985zM18.875 63.281l8.321-3.559c1.052 2.465 2.48 4.717 4.256 6.715l-6.765 6.006C22.262 69.711 20.306 66.629 18.875 63.281zM28.611 76.207l5.719-7.002c1.823 1.49 3.84 2.709 6.022 3.631 0.287 0.121 0.575 0.236 0.865 0.346l-3.204 8.455C34.606 80.348 31.443 78.521 28.611 76.207zM50 83.824c-2.268 0-4.537-0.227-6.744-0.674l1.794-8.859c1.617 0.328 3.271 0.494 4.95 0.494 1.01 0 2.012-0.061 3.002-0.18l1.082 8.975C52.737 83.742 51.364 83.824 50 83.824zM59.424 82.492l-2.515-8.684c0.928-0.27 1.842-0.592 2.738-0.973 1.569-0.664 3.054-1.48 4.443-2.441l5.144 7.436C66.227 79.91 62.927 81.479 59.424 82.492zM73.444 74.387l-6.267-6.521c0.116-0.113 0.233-0.225 0.348-0.34 1.787-1.787 3.271-3.807 4.432-6.02l8.009 4.211C78.271 68.939 76.076 71.857 73.444 74.387zM73.52 57.836c0.84-2.516 1.266-5.143 1.266-7.836 0-0.023-0.001-0.046-0.001-0.069l9.054-0.014v0.068c0 3.663-0.583 7.267-1.733 10.716L73.52 57.836z" fill="#000000" data-fill-palette-color="accent"></path></svg></g></svg></g><g></g></svg></g><defs></defs></svg><rect width="395.52" height="124.24564256201845" fill="none" stroke="none" visibility="hidden"></rect></g></svg></g></svg>